<svg id="Ebene_1" data-name="Ebene 1" xmlns="http://www.w3.org/2000/svg" viewBox="0 0 312.48 45.12">
  <polygon points="312.48 45.12 0 45.12 52 0 312.48 0 312.48 45.12" fill="#d3121a"/>
  <g>
    <path d="M286.962,17.563h3.3v5.748H292.6V17.563h3.3v-1.9h-8.939ZM276.1,23.311h2.346V21.324h3.688c.728,0,.96.265.96,1.067v.92h2.346v-1.3c0-1.257-.58-1.564-1.278-1.691V20.3c1.078-.253,1.31-.856,1.31-1.881v-.485c0-1.374-.486-2.272-2.293-2.272H276.1Zm2.346-5.748h3.666c.74,0,1.079.126,1.079.8v.253c0,.55-.233.8-.868.8h-3.877Zm-12.617,5.748h8.506V21.472h-6.16V20.246h5.706V18.662h-5.706V17.436H274.2V15.661h-8.369Zm-20.836-2.684c0,2.24,1.257,2.768,3.37,2.768h3.783c2.356,0,2.821-1.014,2.821-2.3v-.719h-2.346c0,.951-.316,1.057-1.373,1.057h-2.5c-1.109,0-1.342-.423-1.342-1.532v-.825c0-.95.233-1.531,1.469-1.531h2.557c.7,0,1.1.158,1.1.707v.212h2.346c.021-2.167-.413-2.885-3.751-2.885h-2.758c-2.113,0-3.37.529-3.37,2.769Zm-4.2,2.684h2.346v-7.65H240.79Zm-10.342,0h8.506V21.472H232.8V20.246H238.5V18.662H232.8V17.436h6.022V15.661h-8.369Zm-12.981,0h2.695l1.785-5.051h.022l1.785,5.051h2.7l2.483-7.65h-2.293l-1.627,5.621h-.022l-1.944-5.621H220.87l-1.944,5.621h-.021l-1.628-5.621h-2.292Zm-13.62,0h2.345V20.416h4.945v2.895h2.346v-7.65h-2.346v2.726h-4.945V15.661h-2.345ZM192.1,20.627c0,2.24,1.257,2.768,3.37,2.768h3.783c2.356,0,2.821-1.014,2.821-2.3v-.719h-2.346c0,.951-.317,1.057-1.373,1.057h-2.5c-1.11,0-1.342-.423-1.342-1.532v-.825c0-.95.232-1.531,1.468-1.531h2.557c.7,0,1.1.158,1.1.707v.212h2.346c.021-2.167-.412-2.885-3.751-2.885h-2.758c-2.113,0-3.37.529-3.37,2.769Zm-11.259.708c0,1.659.855,2.06,2.99,2.06h2.842c3.117,0,3.814-.338,3.814-2.4,0-2.229-.845-2.451-4.49-2.44-2.515.011-2.8-.011-2.8-.676,0-.412.359-.592.887-.592h2.6c1.078,0,1.141.232,1.141.792h2.346v-.242c0-1.343-.254-2.262-2.959-2.262h-3.275c-2.959,0-3.086,1.067-3.086,2.452,0,1.88.4,2.3,3.931,2.3,3.022,0,3.3.042,3.3.708,0,.592-.508.645-1,.645H184.2c-.676,0-1-.064-1.015-.877h-2.345Z" fill="#fff"/>
    <polygon points="256.892 18.414 260.12 15.707 263.736 15.707 259.246 19.456 264.109 23.305 260.527 23.305 256.892 20.422 256.892 18.414" fill="#fff"/>
    <polygon points="269.883 8.946 264.106 13.879 265.742 13.886 271.527 8.946 269.883 8.946" fill="#fff"/>
    <polygon points="237.602 36.5 239.252 36.5 245.009 31.589 243.367 31.583 237.602 36.5" fill="#fff"/>
    <path d="M284.222,26.14h1.3v-.7h-3.446v.7h1.3v3.567h.849Zm-2.971-.7h-.85v4.267h.85Zm-7.459,2.907v.2c0,1.222.874,1.194,1.853,1.194,1.139,0,1.729-.1,1.729-1.3,0-1.086-.372-1.155-1.735-1.234-.862-.051-.973-.069-.973-.592,0-.455.135-.535.979-.535.6,0,.79.017.79.478v.137h.85v-.137c0-1.121-.737-1.149-1.64-1.149-1.062,0-1.83.034-1.83,1.206,0,1.241.756,1.206,1.712,1.263.661.034,1-.046,1,.563,0,.5-.105.632-.878.632s-1-.035-1-.523v-.2Zm-.914-2.907h-.849v4.267h.849Zm-4.554.7h1.2c.419,0,.609.034.609.489s-.107.6-.585.6h-1.221Zm1.427,3.567c.933,0,1.334-.245,1.334-1.189,0-.54-.119-.933-.738-1v-.023c.537-.125.631-.455.631-.945,0-.939-.436-1.109-1.3-1.109h-2.2v4.267Zm-1.427-1.861h1.3c.5,0,.607.137.607.6,0,.523-.242.557-.75.557h-1.161Zm-4.987-1.735h.03l-.071,3.6h.85V25.44h-1.393l-1.181,3.169h-.023l-1.2-3.169h-1.363v4.267h.85l-.07-3.579h.017l1.4,3.579h.761Zm-7.261,0c.755,0,1.057.056,1.038.858v1.15c0,.825-.266.927-1.038.927-.85,0-1.021-.079-1.021-.927v-1.15c.017-.676.106-.858,1.021-.858m0-.7c-1.4,0-1.871.233-1.871,1.558v1.15c0,1.4.5,1.627,1.871,1.627,1.339,0,1.888-.261,1.888-1.627v-1.15c0-1.371-.613-1.558-1.888-1.558M250.5,27.6V26.14h1.18c.608,0,.719.108.719.711,0,.626-.153.745-.778.745Zm1.3.7c.407.006.56.256.56.615v.8h.851v-.8c0-.6-.149-.916-.75-.968v-.022c.75-.109.785-.569.785-1.2,0-.968-.372-1.257-1.34-1.28h-2.26v4.267h.85V28.3Zm-4.327-2.156h1.3v-.7H245.33v.7h1.3v3.567h.849Zm-6.465,2.207v.2c0,1.222.873,1.194,1.852,1.194,1.139,0,1.73-.1,1.73-1.3,0-1.086-.372-1.155-1.735-1.234-.862-.051-.974-.069-.974-.592,0-.455.136-.535.979-.535.6,0,.792.017.792.478v.137h.849v-.137c0-1.121-.737-1.149-1.641-1.149-1.062,0-1.828.034-1.828,1.206,0,1.241.755,1.206,1.711,1.263.661.034,1-.046,1,.563,0,.5-.1.632-.88.632s-1-.035-1-.523v-.2Zm-3.925.66h-.024l-1.894-3.567h-1.4v4.267h.849l-.071-3.567h.031l1.881,3.567h1.411V25.44h-.85Zm-6.229-2.9c.755,0,1.057.056,1.038.858v1.15c0,.825-.264.927-1.038.927-.85,0-1.021-.079-1.021-.927v-1.15c.018-.676.106-.858,1.021-.858m0-.7c-1.4,0-1.87.233-1.87,1.558v1.15c0,1.4.5,1.627,1.87,1.627,1.34,0,1.888-.261,1.888-1.627v-1.15c0-1.371-.613-1.558-1.888-1.558m-3.375.034-1.18,3.585h-.018l-1.18-3.585h-.867l1.416,4.267h1.28l1.428-4.267Z" fill="#fff"/>
  </g>
</svg>
